<svg width="1369" height="5766" viewBox="0 0 1369 5766" fill="none" xmlns="http://www.w3.org/2000/svg">
<path d="M1234 690.508C1266.3 52.9073 31.3538 521.596 131.003 7.74512H-57.9968C-58.4387 3272.78 -12.4968 5765.64 -12.4968 5765.64H190.795C328.467 5359.15 1267.36 5944.07 1260.79 5514.95C1254.51 5104.91 470.284 5514.12 274.826 5153.61C-7.23199 4633.38 1503.21 4632.92 1330.81 4066.81C1193.6 3616.25 322.968 3952.72 274.826 3484.2C234.503 3091.77 1237.5 3187 1226.5 2836.75C1211.58 2361.57 488.096 2753.14 413.477 2459.02C368.677 2282.44 528.424 2175.49 486.303 1998.25C435.114 1782.86 176.281 1782.49 115.167 1569.7C-23.0565 1088.41 1210 1164.25 1234 690.508Z" fill="url(#paint0_linear_1962_3973)" fill-opacity="0.5"/>
<path d="M1257.51 682.763C1289.81 45.1622 54.857 513.851 154.506 0H-34.4937C-34.9355 3265.04 11.0063 5757.89 11.0063 5757.89H214.298C351.97 5351.4 1290.86 5936.32 1284.29 5507.2C1278.01 5097.16 493.787 5506.38 298.329 5145.87C16.2712 4625.64 1526.72 4625.18 1354.32 4059.07C1217.11 3608.51 346.471 3944.98 298.329 3476.46C258.006 3084.03 1261.01 3179.26 1250.01 2829C1235.08 2353.82 511.599 2745.39 436.98 2451.28C392.18 2274.7 551.927 2167.75 509.807 1990.51C458.617 1775.11 199.784 1774.75 138.67 1561.95C0.446671 1080.66 1233.51 1156.5 1257.51 682.763Z" fill="url(#paint1_linear_1962_3973)" fill-opacity="0.5"/>
<defs>
<linearGradient id="paint0_linear_1962_3973" x1="82.0845" y1="238.556" x2="-50.4503" y2="4459.53" gradientUnits="userSpaceOnUse">
<stop stop-color="#BC4646"/>
<stop offset="0.0001" stop-color="#BC4646"/>
<stop offset="0.480892" stop-color="#C64B61"/>
<stop offset="1" stop-color="#BC4646"/>
</linearGradient>
<linearGradient id="paint1_linear_1962_3973" x1="105.588" y1="230.811" x2="-26.9471" y2="4451.78" gradientUnits="userSpaceOnUse">
<stop stop-color="#BC4646"/>
<stop offset="0.0001" stop-color="#BC4646"/>
<stop offset="0.480892" stop-color="#C64B61"/>
<stop offset="1" stop-color="#BC4646"/>
</linearGradient>
</defs>
</svg>
