<svg width="225" height="225" viewBox="0 0 225 225" fill="none" xmlns="http://www.w3.org/2000/svg">
<path d="M196.875 125.062C190.969 123 184.688 121.875 178.125 121.875C163.207 121.875 148.899 127.801 138.35 138.35C127.801 148.899 121.875 163.207 121.875 178.125C121.875 181.312 122.156 184.406 122.625 187.5H28.125C23.1522 187.5 18.3831 185.525 14.8667 182.008C11.3504 178.492 9.375 173.723 9.375 168.75V56.25C9.375 45.8438 17.7188 37.5 28.125 37.5H178.125C183.098 37.5 187.867 39.4754 191.383 42.9917C194.9 46.5081 196.875 51.2772 196.875 56.25V125.062ZM220.312 159.375L173.438 206.25L140.625 173.438L154.688 159.375L173.438 178.125L206.25 145.312L220.312 159.375ZM28.125 56.25V75L103.125 121.875L178.125 75V56.25L103.125 103.125L28.125 56.25Z" fill="white"/>
</svg>
