<svg width="1397" height="4189" viewBox="0 0 1397 4189" fill="none" xmlns="http://www.w3.org/2000/svg">
<path d="M1262.5 535.508C1294.8 -102.093 59.8507 366.596 159.5 -147.255H-29.5C-29.9418 3117.78 16 5610.64 16 5610.64H219.292C356.963 5204.15 1295.86 5789.07 1289.29 5359.95C1283.01 4949.91 498.781 5359.12 303.323 4998.61C21.2648 4478.38 1531.71 4477.92 1359.31 3911.81C1222.1 3461.25 351.464 3797.72 303.323 3329.2C263 2936.77 1266 3032 1255 2681.75C1240.08 2206.57 516.593 2598.14 441.974 2304.02C397.174 2127.44 556.921 2020.49 514.8 1843.25C463.611 1627.86 204.778 1627.49 143.664 1414.7C5.44032 933.407 1238.5 1009.25 1262.5 535.508Z" fill="url(#paint0_linear_1453_3004)" fill-opacity="0.5"/>
<path d="M1286 527.763C1318.3 -109.838 83.3538 358.851 183.003 -155H-5.99683C-6.43865 3110.04 39.5032 5602.89 39.5032 5602.89H242.795C380.467 5196.4 1319.36 5781.32 1312.79 5352.2C1306.51 4942.16 522.284 5351.38 326.826 4990.87C44.768 4470.64 1555.21 4470.18 1382.81 3904.07C1245.6 3453.51 374.968 3789.98 326.826 3321.46C286.503 2929.03 1289.5 3024.26 1278.5 2674C1263.58 2198.82 540.096 2590.39 465.477 2296.28C420.677 2119.7 580.424 2012.75 538.303 1835.51C487.114 1620.11 228.281 1619.75 167.167 1406.95C28.9435 925.662 1262 1001.5 1286 527.763Z" fill="url(#paint1_linear_1453_3004)" fill-opacity="0.2"/>
<defs>
<linearGradient id="paint0_linear_1453_3004" x1="110.581" y1="83.5564" x2="-21.9534" y2="4304.53" gradientUnits="userSpaceOnUse">
<stop stop-color="#BC4646"/>
<stop offset="0.0001" stop-color="#BC4646"/>
<stop offset="0.480892" stop-color="#C64B61"/>
<stop offset="1" stop-color="#BC4646"/>
</linearGradient>
<linearGradient id="paint1_linear_1453_3004" x1="134.085" y1="75.8112" x2="1.54973" y2="4296.78" gradientUnits="userSpaceOnUse">
<stop stop-color="#BC4646"/>
<stop offset="0.0001" stop-color="#BC4646"/>
<stop offset="0.480892" stop-color="#C64B61"/>
<stop offset="1" stop-color="#BC4646"/>
</linearGradient>
</defs>
</svg>
